/* XPM */
static char *_e5404a54d69466587ad1c751a87904dslCpLttsl0KbS1ZX[] = {
/* columns rows colors chars-per-pixel */
"64 64 10 1 ",
"  c None",
". c #69952C",
"X c #77A636",
"o c #7D847B",
"O c #8B9189",
"+ c #959D92",
"@ c #A1AA9E",
"# c #A5AEA2",
"$ c #B5C8AF",
"% c #BEC3BD",
/* pixels */
"                                                                ",
"                                                                ",
"                                                                ",
"                                                                ",
"                                                                ",
"                                                                ",
"                                                                ",
"                                                                ",
"                                                                ",
"                                                                ",
"                                                                ",
"                                                                ",
"                                                                ",
"                                                                ",
"                                                                ",
"                                                                ",
"                                                                ",
"                                                                ",
"                                                                ",
"                                                                ",
"                                                                ",
"                                                                ",
"                                                                ",
"                                                                ",
"                                                                ",
"                                                                ",
"                                                                ",
"                                                                ",
"                                                                ",
"                                 #######                        ",
"                          ################                      ",
"                         ##################                     ",
"                        ######################                  ",
"                       #####################oo                  ",
"                      ###################OOoooo                 ",
"                     #######%%+#####OOO##ooooooo                ",
"                    ######%%+++++++oooooooooooooo               ",
"                   @%%%++%++++++++++oooooooooooooo              ",
"                  @++++++++++++++++++ooooooooooooo              ",
"                  @+++++++++++++++++++ooooooooooooo             ",
"                  @++++++++++++++++++++oooooooooooo             ",
"                 @++++++++$+++++++++++++ooooooooooo             ",
"                 @+++++++++X+++++++++++++ooooooooooo            ",
"                ++++++++X++X+++++++++++++++ooooooooo $          ",
"                +++++$+XX.+X+X+++.+$++X+++++++ooooooX           ",
"                ++++++XXX.XXXXX+X.X++X++++++++++oXoX            ",
"                +++++.XXXXXXXXX.X.XX.X.++++++++...XX.           ",
"                +++XXXXXXXXXXXXXXXXXXXX++++++++++.XX.           ",
"                                                                ",
"                                                                ",
"                                                                ",
"                                                                ",
"                                                                ",
"                                                                ",
"                                                                ",
"                                                                ",
"                                                                ",
"                                                                ",
"                                                                ",
"                                                                ",
"                                                                ",
"                                                                ",
"                                                                ",
"                                                                "
};
