/* XPM */
static char *_779ae71baf54a2ab90e67a71ad40728PU01J3BoT85bQ8Ku[] = {
/* columns rows colors chars-per-pixel */
"128 128 9 1 ",
"  c None",
". c black",
"X c #272736",
"o c #323E4F",
"O c #3D6E70",
"+ c #964253",
"@ c #BA6156",
"# c #3CA370",
"$ c #8FDE5D",
/* pixels */
"                                $$$##$.                  .$##$$$                                $$$##$.                  .$##$$$",
"               ..               #$$###$.       ..       .$###$$#               ..               #$$###$.       ..       .$###$$#",
"              .$$.              #$$####.      .$$.      .####$$#              .$$.              #$$####.      .$$.      .####$$#",
"              .$$.              ##$#O###.     .$$.     .###O#$##              .$$.              ##$#O###.     .$$.     .###O#$##",
"             .$$$$.             ####O####.   .$$$$.   .####O####             .$$$$.             ####O####.   .$$$$.   .####O####",
"            .$$$$$$.            O###OOO##.  .$$$$$$.  .##OOO###O            .$$$$$$.            O###OOO##.  .$$$$$$.  .##OOO###O",
"            .$$$$$$.            OO###OOOOO. .$$$$$$. .OOOOO###OO            .$$$$$$.            OO###OOOOO. .$$$$$$. .OOOOO###OO",
"            .$$$$$$.            OOO##OOOOoo..$$$$$$..ooOOOO##OOO           ..$$$$$$..           OOO##OOOOoo..$$$$$$..ooOOOO##OOO",
"           .$$$$$$$$.           OOOO#OoOoXo.$$$$$$$$.oXoOoO#OOOO           .$$$$$$$$.           OOOO#OoOoXo.$$$$$$$$.oXoOoO#OOOO",
"           .$$$$$$$$.           OOOoOoooo.X.$$$$$$$$.X.ooooOoOOO           .$$$$$$$$.           OOOoOoooo.X.$$$$$$$$.X.ooooOoOOO",
"          .$$$$$$$$$$.          OOooooXooo.$$$$$$$$$$.oooXooooOO          .$$$$$$$$$$.          OOooooXooo.$$$$$$$$$$.oooXooooOO",
"          .$$$$$$$$$$.          oooooo.XXo.$$$$$$$$$$.oXX.oooooo          .$$$$$$$$$$.          oooooo.XXo.$$$$$$$$$$.oXX.oooooo",
"         .$$$$$$$$$$$$.         ooXXXoo.X.$$$$$$$$$$$$.X.ooXXXoo         .$$$$$$$$$$$$.         ooXXXoo.X.$$$$$$$$$$$$.X.ooXXXoo",
"        .$$$#$$$$$$#$$$.        Xoo..Xo..$$$#$$$$$$#$$$..oX..ooX        .$$$#$$$$$$#$$$.        Xoo..Xo..$$$#$$$$$$#$$$..oX..ooX",
"        .$$$#$$##$$#$$$.        .XX. .. .$$$#$$##$$#$$$. .. .XX.        .$$$#$$##$$#$$$.        .XX. .. .$$$#$$##$$#$$$. .. .XX.",
"        .$$##$$##$$##$$.        +..     .$$##$$##$$##$$.    ...@        .$$##$$##$$##$$.        +..     .$$##$$##$$##$$.    ...@",
"       .$$###$$##$$###$$.       @+.    .$$###$$##$$###$$.   .+@@       .$$###$$##$$###$$.       @+.    .$$###$$##$$###$$.   .+@@",
"       .$####$$##$$####$.       ..     .$####$$##$$####$.    ...       .$####$$##$$####$.       ..     .$####$$##$$####$.    ...",
"       .###O#$####$#O###.              .###O#$####$#O###..             .###O#$####$#O###.              .###O#$####$#O###.       ",
"      .O###O########O###O.            .O###O########O###O..           .O###O########O###O.            .O###O########O###O.      ",
"     .OOO#OO########OO#OOO.          .OOO#OO########OO#OOO.          .OOO#OO########OO#OOO.          .OOO#OO########OO#OOO.     ",
"    .OOoOoOO##OOOO##OOoOoOO.        .OOoOoOO##OOOO##OOoOoOO.        .OOoOoOO##OOOO##OOoOoOO.        .OOoOoOO##OOOO##OOoOoOO.    ",
"   .oooXoOOOO#OOOO#OOOOoXooo.   .  .oooXoOOOO#OOOO#OOOOoXooo.  ..  .oooXoOOOO#OOOO#OOOOoXooo.  .   .oooXoOOOO#OOOO#OOOOoXooo.   ",
"  .XXXXoOOOoO#OOOO#OoOOOoXXXX.  $..XXXXoOOOoO#OOOO#OoOOOoXXXX..$$..XXXXoOOOoO#OOOO#OoOOOoXXXX..$  .XXXXoOOOoO#OOOO#OoOOOoXXXX.  ",
"   ...oOOooOOOOOOOOOOooOOo...   $$....oOOooOOOOOOOOOOooOOo....$$$$....oOOooOOOOOOOOOOooOOo....$$   ...oOOooOOOOOOOOOOooOOo...   ",
"    .ooooooOOooOOooOOoooooo.    $$. .ooooooOOooOOooOOoooooo. .$$$$. .ooooooOOooOOooOOoooooo. .$$    .ooooooOOooOOooOOoooooo.    ",
"   .oooXX.oooooooooooo.XXooo.   $$$.oooXX.oooooooooooo.XXooo.$$$$$$.oooXX.oooooooooooo.XXooo.$$$   .oooXX.oooooooooooo.XXooo.   ",
"  .XXXXX.ooXXooXXooXXoo.XXXXX.  $$$.XXXX.ooXXooXXooXXoo.XXXX.$$$$$$.XXXX.ooXXooXXooXXoo.XXXX.$$$   .XXXX.ooXXooXXooXXoo.XXXX.   ",
"   .....ooXXooX..XooXXoo.....   $$$$....ooXXooX..XooXXoo....$$$$$$$$....ooXXooX..XooXXoo....$$$$    ....ooXXooX..XooXXoo....    ",
"      .ooX..oX.@+.Xo..Xoo.      $$$$. .ooX..oX.+@.Xo..Xoo. .$$$$$$$$. .ooX..oX.@+.Xo..Xoo. .$$$$      .ooX..oX.@+.Xo..Xoo.      ",
"       ....oo.@@@+.oo....       $$$$$. ....oo.+@@@.oo.... .$$$$$$$$$$. ....oo.@@@+.oo.... .$$$$$       ....oo.@@@+.oo....       ",
"           ....... ..           $$$$$.     .. .......     .$$$$$$$$$$.     ....... ..     .$$$$$           ....... ..           ",
"$$$##$.                                                  .$##$$$                         .$##$$$$$$##$.                         ",
"#$$###$.       ..                              ..       .$###$$#               ..       .$###$$##$$###$.       ..               ",
"#$$####.      .$$.                            .$$.      .####$$#              .$$.      .####$$##$$####.      .$$.              ",
"##$#O###.     .$$.                            .$$.     .###O#$##              .$$.     .###O#$####$#O###.     .$$.              ",
"####O####.   .$$$$.                          .$$$$.   .####O####             .$$$$.   .####O########O####.   .$$$$.             ",
"O###OOO##.  .$$$$$$.                        .$$$$$$.  .##OOO###O            .$$$$$$.  .##OOO###OO###OOO##.  .$$$$$$.            ",
"OO###OOOOO. .$$$$$$.                        .$$$$$$. .OOOOO###OO            .$$$$$$. .OOOOO###OOOO###OOOOO. .$$$$$$.            ",
"OOO##OOOOoo..$$$$$$.                        .$$$$$$..ooOOOO##OOO            .$$$$$$..ooOOOO##OOOOOO##OOOOoo..$$$$$$.            ",
"OOOO#OoOoXo.$$$$$$$$.                      .$$$$$$$$.oXoOoO#OOOO           .$$$$$$$$.oXoOoO#OOOOOOOO#OoOoXo.$$$$$$$$.           ",
"OOOoOoooo.X.$$$$$$$$.                      .$$$$$$$$.X.ooooOoOOO           .$$$$$$$$.X.ooooOoOOOOOOoOoooo.X.$$$$$$$$.           ",
"OOooooXooo.$$$$$$$$$$.                    .$$$$$$$$$$.oooXooooOO          .$$$$$$$$$$.oooXooooOOOOooooXooo.$$$$$$$$$$.          ",
"oooooo.XXo.$$$$$$$$$$.                    .$$$$$$$$$$.oXX.oooooo          .$$$$$$$$$$.oXX.oooooooooooo.XXo.$$$$$$$$$$.          ",
"ooXXXoo.X.$$$$$$$$$$$$.                  .$$$$$$$$$$$$.X.ooXXXoo         .$$$$$$$$$$$$.X.ooXXXooooXXXoo.X.$$$$$$$$$$$$.         ",
"Xoo..Xo..$$$#$$$$$$#$$$.                .$$$#$$$$$$#$$$..oX..ooX        .$$$#$$$$$$#$$$..oX..ooXXoo..Xo..$$$#$$$$$$#$$$.        ",
".XX. .. .$$$#$$##$$#$$$.                .$$$#$$##$$#$$$. .. .XX.        .$$$#$$##$$#$$$. .. .XX..XX. .. .$$$#$$##$$#$$$.        ",
"+..     .$$##$$##$$##$$.                .$$##$$##$$##$$.    ...@        .$$##$$##$$##$$.    ...@@...    .$$##$$##$$##$$.        ",
"@+.    .$$###$$##$$###$$.              .$$###$$##$$###$$.   .+@@       .$$###$$##$$###$$.   .+@@@@+.   .$$###$$##$$###$$.       ",
"..     .$####$$##$$####$.              .$####$$##$$####$.    ...       .$####$$##$$####$.    ......    .$####$$##$$####$.       ",
"       .###O#$####$#O###.              .###O#$####$#O###.              .###O#$####$#O###.              .###O#$####$#O###.       ",
"      .O###O########O###O.            .O###O########O###O.            .O###O########O###O.            .O###O########O###O.      ",
"     .OOO#OO########OO#OOO.          .OOO#OO########OO#OOO.          .OOO#OO########OO#OOO.          .OOO#OO########OO#OOO.     ",
"    .OOoOoOO##OOOO##OOoOoOO.        .OOoOoOO##OOOO##OOoOoOO.        .OOoOoOO##OOOO##OOoOoOO.        .OOoOoOO##OOOO##OOoOoOO.    ",
".  .oooXoOOOO#OOOO#OOOOoXooo.      .oooXoOOOO#OOOO#OOOOoXooo.  ..  .oooXoOOOO#OOOO#OOOOoXooo.      .oooXoOOOO#OOOO#OOOOoXooo.  .",
"$..XXXXoOOOoO#OOOO#OoOOOoXXXX.    .XXXXoOOOoO#OOOO#OoOOOoXXXX..$$..XXXXoOOOoO#OOOO#OoOOOoXXXX.    .XXXXoOOOoO#OOOO#OoOOOoXXXX..$",
"$$....oOOooOOOOOOOOOOooOOo...      ...oOOooOOOOOOOOOOooOOo....$$$$....oOOooOOOOOOOOOOooOOo...      ...oOOooOOOOOOOOOOooOOo....$$",
"$$. .ooooooOOooOOooOOoooooo.        .ooooooOOooOOooOOoooooo. .$$$$. .ooooooOOooOOooOOoooooo.        .ooooooOOooOOooOOoooooo. .$$",
"$$$.oooXX.oooooooooooo.XXooo.      .oooXX.oooooooooooo.XXooo.$$$$$$.oooXX.oooooooooooo.XXooo.      .oooXX.oooooooooooo.XXooo.$$$",
"$$$.XXXX.ooXXooXXooXXoo.XXXX.      .XXXX.ooXXooXXooXXoo.XXXX.$$$$$$.XXXX.ooXXooXXooXXoo.XXXX.      .XXXX.ooXXooXXooXXoo.XXXX.$$$",
"$$$$....ooXXooX..XooXXoo....        ....ooXXooX..XooXXoo....$$$$$$$$....ooXXooX..XooXXoo....        ....ooXXooX..XooXXoo....$$$$",
"$$$$. .ooX..oX.+@.Xo..Xoo.            .ooX..oX.+@.Xo..Xoo. .$$$$$$$$. .ooX..oX.+@.Xo..Xoo.            .ooX..oX.@+.Xo..Xoo. .$$$$",
"$$$$$. ....oo.+@@@.oo....              ....oo.+@@@.oo.... .$$$$$$$$$$. ....oo.+@@@.oo....              ....oo.@@@+.oo.... .$$$$$",
"$$$$$.     .. .......                      .. .......     .$$$$$$$$$$.     .. .......                      ....... ..     .$$$$$",
"                         .$##$$$$$$##$.                         $$$##$.                  .$##$$$$$$##$.                  .$##$$$",
"               ..       .$###$$##$$###$.       ..               #$$###$.       ..       .$###$$##$$###$.       ..       .$###$$#",
"              .$$.      .####$$##$$####.      .$$.              #$$####.      .$$.      .####$$##$$####.      .$$.      .####$$#",
"              .$$.     .###O#$####$#O###.     .$$.              ##$#O###.     .$$.     .###O#$####$#O###.     .$$.     .###O#$##",
"             .$$$$.   .####O########O####.   .$$$$.             ####O####.   .$$$$.   .####O########O####.   .$$$$.   .####O####",
"            .$$$$$$.  .##OOO###OO###OOO##.  .$$$$$$.            O###OOO##.  .$$$$$$.  .##OOO###OO###OOO##.  .$$$$$$.  .##OOO###O",
"            .$$$$$$. .OOOOO###OOOO###OOOOO. .$$$$$$.            OO###OOOOO. .$$$$$$. .OOOOO###OOOO###OOOOO. .$$$$$$. .OOOOO###OO",
"            .$$$$$$..ooOOOO##OOOOOO##OOOOoo..$$$$$$.            OOO##OOOOoo..$$$$$$..ooOOOO##OOOOOO##OOOOoo..$$$$$$..ooOOOO##OOO",
"           .$$$$$$$$.oXoOoO#OOOOOOOO#OoOoXo.$$$$$$$$.           OOOO#OoOoXo.$$$$$$$$.oXoOoO#OOOOOOOO#OoOoXo.$$$$$$$$.oXoOoO#OOOO",
"           .$$$$$$$$.X.ooooOoOOOOOOoOoooo.X.$$$$$$$$.           OOOoOoooo.X.$$$$$$$$.X.ooooOoOOOOOOoOoooo.X.$$$$$$$$.X.ooooOoOOO",
"          .$$$$$$$$$$.oooXooooOOOOooooXooo.$$$$$$$$$$.          OOooooXooo.$$$$$$$$$$.oooXooooOOOOooooXooo.$$$$$$$$$$.oooXooooOO",
"          .$$$$$$$$$$.oXX.oooooooooooo.XXo.$$$$$$$$$$.          oooooo.XXo.$$$$$$$$$$.oXX.oooooooooooo.XXo.$$$$$$$$$$.oXX.oooooo",
"         .$$$$$$$$$$$$.X.ooXXXooooXXXoo.X.$$$$$$$$$$$$.         ooXXXoo.X.$$$$$$$$$$$$.X.ooXXXooooXXXoo.X.$$$$$$$$$$$$.X.ooXXXoo",
"        .$$$#$$$$$$#$$$..oX..ooXXoo..Xo..$$$#$$$$$$#$$$.        Xoo..Xo..$$$#$$$$$$#$$$..oX..ooXXoo..Xo..$$$#$$$$$$#$$$..oX..ooX",
"        .$$$#$$##$$#$$$. .. .XX..XX. .. .$$$#$$##$$#$$$.        .XX. .. .$$$#$$##$$#$$$. .. .XX..XX. .. .$$$#$$##$$#$$$. .. .XX.",
"        .$$##$$##$$##$$.    ...@+..     .$$##$$##$$##$$.        +..     .$$##$$##$$##$$.    ...@+..     .$$##$$##$$##$$.    ...@",
"       .$$###$$##$$###$$.   .+@@@+.    .$$###$$##$$###$$.       @+.    .$$###$$##$$###$$.   .+@@@+.    .$$###$$##$$###$$.   .+@@",
"       .$####$$##$$####$.    .....     .$####$$##$$####$.       ..     .$####$$##$$####$.    .....     .$####$$##$$####$.    ...",
"       .###O#$####$#O###..             .###O#$####$#O###..             .###O#$####$#O###.              .###O#$####$#O###.       ",
"      .O###O########O###O..           .O###O########O###O..           .O###O########O###O.            .O###O########O###O.      ",
"     .OOO#OO########OO#OOO.          .OOO#OO########OO#OOO.          .OOO#OO########OO#OOO.          .OOO#OO########OO#OOO.     ",
"    .OOoOoOO##OOOO##OOoOoOO.        .OOoOoOO##OOOO##OOoOoOO.        .OOoOoOO##OOOO##OOoOoOO.        .OOoOoOO##OOOO##OOoOoOO.    ",
".  .oooXoOOOO#OOOO#OOOOoXooo.  ..  .oooXoOOOO#OOOO#OOOOoXooo.  ..  .oooXoOOOO#OOOO#OOOOoXooo.      .oooXoOOOO#OOOO#OOOOoXooo.  .",
"$..XXXXoOOOoO#OOOO#OoOOOoXXXX..$$..XXXXoOOOoO#OOOO#OoOOOoXXXX..$$..XXXXoOOOoO#OOOO#OoOOOoXXXX.    .XXXXoOOOoO#OOOO#OoOOOoXXXX..$",
"$$....oOOooOOOOOOOOOOooOOo....$$$$....oOOooOOOOOOOOOOooOOo....$$$$....oOOooOOOOOOOOOOooOOo...      ...oOOooOOOOOOOOOOooOOo....$$",
"$$. .ooooooOOooOOooOOoooooo. .$$$$. .ooooooOOooOOooOOoooooo. .$$$$. .ooooooOOooOOooOOoooooo.        .ooooooOOooOOooOOoooooo. .$$",
"$$$.oooXX.oooooooooooo.XXooo.$$$$$$.oooXX.oooooooooooo.XXooo.$$$$$$.oooXX.oooooooooooo.XXooo.      .oooXX.oooooooooooo.XXooo.$$$",
"$$$.XXXX.ooXXooXXooXXoo.XXXX.$$$$$$.XXXX.ooXXooXXooXXoo.XXXX.$$$$$$.XXXX.ooXXooXXooXXoo.XXXX.      .XXXX.ooXXooXXooXXoo.XXXX.$$$",
"$$$$....ooXXooX..XooXXoo....$$$$$$$$....ooXXooX..XooXXoo....$$$$$$$$....ooXXooX..XooXXoo....        ....ooXXooX..XooXXoo....$$$$",
"$$$$. .ooX..oX.+@.Xo..Xoo. .$$$$$$$$. .ooX..oX.+@.Xo..Xoo. .$$$$$$$$. .ooX..oX.+@.Xo..Xoo.            .ooX..oX.+@.Xo..Xoo. .$$$$",
"$$$$$. ....oo.+@@@.oo.... .$$$$$$$$$$. ....oo.+@@@.oo.... .$$$$$$$$$$. ....oo.+@@@.oo....              ....oo.+@@@.oo.... .$$$$$",
"$$$$$.     .. .......     .$$$$$$$$$$.     .. .......     .$$$$$$$$$$.     .. .......                      .. .......     .$$$$$",
"                                                                $$$##$.                                                  .$##$$$",
"               ..                              ..               #$$###$.       ..                              ..       .$###$$#",
"              .$$.                            .$$.              #$$####.      .$$.                            .$$.      .####$$#",
"              .$$.                            .$$.              ##$#O###.     .$$.                            .$$.     .###O#$##",
"             .$$$$.                          .$$$$.             ####O####.   .$$$$.                          .$$$$.   .####O####",
"            .$$$$$$.                        .$$$$$$.            O###OOO##.  .$$$$$$.                        .$$$$$$.  .##OOO###O",
"            .$$$$$$.                        .$$$$$$.            OO###OOOOO. .$$$$$$.                        .$$$$$$. .OOOOO###OO",
"            .$$$$$$.                        .$$$$$$.            OOO##OOOOoo..$$$$$$.                        .$$$$$$..ooOOOO##OOO",
"           .$$$$$$$$.                      .$$$$$$$$.           OOOO#OoOoXo.$$$$$$$$.                      .$$$$$$$$.oXoOoO#OOOO",
"           .$$$$$$$$.                      .$$$$$$$$.           OOOoOoooo.X.$$$$$$$$.                      .$$$$$$$$.X.ooooOoOOO",
"          .$$$$$$$$$$.                    .$$$$$$$$$$.          OOooooXooo.$$$$$$$$$$.                    .$$$$$$$$$$.oooXooooOO",
"          .$$$$$$$$$$.                    .$$$$$$$$$$.          oooooo.XXo.$$$$$$$$$$.                    .$$$$$$$$$$.oXX.oooooo",
"         .$$$$$$$$$$$$.                  .$$$$$$$$$$$$.         ooXXXoo.X.$$$$$$$$$$$$.                  .$$$$$$$$$$$$.X.ooXXXoo",
"        .$$$#$$$$$$#$$$.                .$$$#$$$$$$#$$$.        Xoo..Xo..$$$#$$$$$$#$$$.                .$$$#$$$$$$#$$$..oX..ooX",
"        .$$$#$$##$$#$$$.                .$$$#$$##$$#$$$.        .XX. .. .$$$#$$##$$#$$$.                .$$$#$$##$$#$$$. .. .XX.",
"        .$$##$$##$$##$$.                .$$##$$##$$##$$.        @...    .$$##$$##$$##$$.                .$$##$$##$$##$$.    ...@",
"       .$$###$$##$$###$$.              .$$###$$##$$###$$.       @@+.   .$$###$$##$$###$$.              .$$###$$##$$###$$.   .+@@",
"       .$####$$##$$####$.              .$####$$##$$####$.       ...    .$####$$##$$####$.              .$####$$##$$####$.    ...",
"       .###O#$####$#O###.              .###O#$####$#O###.              .###O#$####$#O###.              .###O#$####$#O###.       ",
"      .O###O########O###O.            .O###O########O###O.            .O###O########O###O.            .O###O########O###O.      ",
"     .OOO#OO########OO#OOO.          .OOO#OO########OO#OOO.          .OOO#OO########OO#OOO.          .OOO#OO########OO#OOO.     ",
"    .OOoOoOO##OOOO##OOoOoOO.        .OOoOoOO##OOOO##OOoOoOO.        .OOoOoOO##OOOO##OOoOoOO.        .OOoOoOO##OOOO##OOoOoOO.    ",
"   .oooXoOOOO#OOOO#OOOOoXooo.  ..  .oooXoOOOO#OOOO#OOOOoXooo.      .oooXoOOOO#OOOO#OOOOoXooo.      .oooXoOOOO#OOOO#OOOOoXooo.   ",
"  .XXXXoOOOoO#OOOO#OoOOOoXXXX..$$..XXXXoOOOoO#OOOO#OoOOOoXXXX.    .XXXXoOOOoO#OOOO#OoOOOoXXXX.    .XXXXoOOOoO#OOOO#OoOOOoXXXX.  ",
"   ...oOOooOOOOOOOOOOooOOo....$$$$....oOOooOOOOOOOOOOooOOo...      ...oOOooOOOOOOOOOOooOOo...      ...oOOooOOOOOOOOOOooOOo...   ",
"    .ooooooOOooOOooOOoooooo. .$$$$. .ooooooOOooOOooOOoooooo.        .ooooooOOooOOooOOoooooo.        .ooooooOOooOOooOOoooooo.    ",
"   .oooXX.oooooooooooo.XXooo.$$$$$$.oooXX.oooooooooooo.XXooo.      .oooXX.oooooooooooo.XXooo.      .oooXX.oooooooooooo.XXooo.   ",
"   .XXXX.ooXXooXXooXXoo.XXXX.$$$$$$.XXXX.ooXXooXXooXXoo.XXXX.      .XXXX.ooXXooXXooXXoo.XXXX.      .XXXX.ooXXooXXooXXoo.XXXX.   ",
"    ....ooXXooX..XooXXoo....$$$$$$$$....ooXXooX..XooXXoo....        ....ooXXooX..XooXXoo....        ....ooXXooX..XooXXoo....    ",
"      .ooX..oX.+@.Xo..Xoo. .$$$$$$$$. .ooX..oX.+@.Xo..Xoo.            .ooX..oX.@+.Xo..Xoo.            .ooX..oX.+@.Xo..Xoo.      ",
"       ....oo.+@@@.oo.... .$$$$$$$$$$. ....oo.+@@@.oo....              ....oo.@@@+.oo....              ....oo.+@@@.oo....       ",
"           .. .......     .$$$$$$$$$$.     .. .......                      ....... ..                      .. .......           "
};
